<?xml version="1.0" encoding="UTF-8" standalone="no"?>
<svg
   xmlns:dc="http://purl.org/dc/elements/1.1/"
   xmlns:cc="http://creativecommons.org/ns#"
   xmlns:rdf="http://www.w3.org/1999/02/22-rdf-syntax-ns#"
   xmlns:svg="http://www.w3.org/2000/svg"
   xmlns="http://www.w3.org/2000/svg"
   xmlns:sodipodi="http://sodipodi.sourceforge.net/DTD/sodipodi-0.dtd"
   xmlns:inkscape="http://www.inkscape.org/namespaces/inkscape"
   aria-hidden="true"
   focusable="false"
   data-prefix="fab"
   data-icon="instagram"
   class="svg-inline--fa fa-instagram fa-w-14"
   role="img"
   viewBox="0 0 35 34.992001"
   version="1.1"
   id="svg4"
   sodipodi:docname="instagram-brands.svg"
   inkscape:version="1.0.1 (3bc2e813f5, 2020-09-07)"
   width="35"
   height="34.992001">
  <metadata
     id="metadata10">
    <rdf:RDF>
      <cc:Work
         rdf:about="">
        <dc:format>image/svg+xml</dc:format>
        <dc:type
           rdf:resource="http://purl.org/dc/dcmitype/StillImage" />
        <dc:title></dc:title>
      </cc:Work>
    </rdf:RDF>
  </metadata>
  <defs
     id="defs8" />
  <sodipodi:namedview
     pagecolor="#ffffff"
     bordercolor="#666666"
     borderopacity="1"
     objecttolerance="10"
     gridtolerance="10"
     guidetolerance="10"
     inkscape:pageopacity="0"
     inkscape:pageshadow="2"
     inkscape:window-width="1920"
     inkscape:window-height="1017"
     id="namedview6"
     showgrid="false"
     inkscape:zoom="1.6601562"
     inkscape:cx="224"
     inkscape:cy="256"
     inkscape:window-x="-8"
     inkscape:window-y="-8"
     inkscape:window-maximized="1"
     inkscape:current-layer="svg4"
     inkscape:document-rotation="0"
     lock-margins="false"
     fit-margin-top="0"
     fit-margin-left="0"
     fit-margin-right="0"
     fit-margin-bottom="0" />
  <path
     fill="currentColor"
     d="m 17.503904,8.5244934 c -4.965979,0 -8.971556,4.0055546 -8.971556,8.9715066 0,4.965952 4.005577,8.971507 8.971556,8.971507 4.965979,0 8.971556,-4.005555 8.971556,-8.971507 0,-4.965952 -4.005577,-8.9715066 -8.971556,-8.9715066 z m 0,14.8041576 c -3.209147,0 -5.832683,-2.615714 -5.832683,-5.832651 0,-3.216937 2.615728,-5.832651 5.832683,-5.832651 3.216955,0 5.832683,2.615714 5.832683,5.832651 0,3.216937 -2.623536,5.832651 -5.832683,5.832651 z M 28.935025,8.1575124 c 0,1.1634066 -0.936977,2.0925706 -2.092582,2.0925706 -1.163413,0 -2.092582,-0.936972 -2.092582,-2.0925706 0,-1.1555987 0.936977,-2.0925705 2.092582,-2.0925705 1.155605,0 2.092582,0.9369718 2.092582,2.0925705 z m 5.941997,2.1238036 C 34.744283,7.4782081 34.104016,4.9952318 32.050474,2.94951 30.004741,0.90378828 27.521751,0.2635238 24.718628,0.12297757 c -2.889013,-0.16397009 -11.548243,-0.16397009 -14.437256,0 C 7.4860569,0.25571584 5.0030675,0.89597932 2.9495259,2.9417021 0.89598438,4.9874238 0.26352482,7.4704002 0.12297825,10.273508 c -0.163971,2.888997 -0.163971,11.548179 0,14.437176 0.13273843,2.803108 0.77300613,5.286084 2.82654765,7.331806 2.0535416,2.045722 4.5287228,2.685986 7.3318461,2.826532 2.889013,0.163971 11.548243,0.163971 14.437256,0 2.803123,-0.132738 5.286113,-0.773002 7.331846,-2.826532 2.045733,-2.045722 2.686001,-4.528698 2.826548,-7.331806 0.163971,-2.888997 0.163971,-11.540371 0,-14.429368 z M 31.14473,27.8105 c -0.609036,1.530388 -1.788065,2.70941 -3.326269,3.32625 -2.303402,0.913548 -7.769102,0.702729 -10.314557,0.702729 -2.545454,0 -8.0189626,0.203011 -10.3145565,-0.702729 C 5.6589515,30.527718 4.4799219,29.348696 3.8630786,27.8105 2.9495259,25.50711 3.1603458,20.04144 3.1603458,17.496 3.1603458,14.950559 2.9573341,9.4770811 3.8630786,7.1814997 4.4721138,5.6511122 5.6511433,4.4720896 7.1893475,3.855249 9.4927496,2.9417021 14.95845,3.1525209 17.503904,3.1525209 c 2.545455,0 8.018963,-0.2030109 10.314557,0.7027281 1.530396,0.6090327 2.709425,1.7880552 3.326269,3.3262507 0.913552,2.3033894 0.702732,7.7690593 0.702732,10.3145003 0,2.54544 0.21082,8.018919 -0.702732,10.3145 z"
     id="path2"
     style="fill:#999999;stroke-width:0.0780812" />
</svg>
