<?xml version="1.0" encoding="UTF-8" standalone="no"?>
<svg
   xmlns:dc="http://purl.org/dc/elements/1.1/"
   xmlns:cc="http://creativecommons.org/ns#"
   xmlns:rdf="http://www.w3.org/1999/02/22-rdf-syntax-ns#"
   xmlns:svg="http://www.w3.org/2000/svg"
   xmlns="http://www.w3.org/2000/svg"
   xmlns:sodipodi="http://sodipodi.sourceforge.net/DTD/sodipodi-0.dtd"
   xmlns:inkscape="http://www.inkscape.org/namespaces/inkscape"
   aria-hidden="true"
   focusable="false"
   data-prefix="fab"
   data-icon="twitter-square"
   class="svg-inline--fa fa-twitter-square fa-w-14"
   role="img"
   viewBox="0 0 35 35"
   version="1.1"
   id="svg4"
   sodipodi:docname="twitter-brands.svg"
   width="35"
   height="35"
   inkscape:version="1.0.1 (3bc2e813f5, 2020-09-07)">
  <metadata
     id="metadata10">
    <rdf:RDF>
      <cc:Work
         rdf:about="">
        <dc:format>image/svg+xml</dc:format>
        <dc:type
           rdf:resource="http://purl.org/dc/dcmitype/StillImage" />
      </cc:Work>
    </rdf:RDF>
  </metadata>
  <defs
     id="defs8" />
  <sodipodi:namedview
     pagecolor="#ffffff"
     bordercolor="#666666"
     borderopacity="1"
     objecttolerance="10"
     gridtolerance="10"
     guidetolerance="10"
     inkscape:pageopacity="0"
     inkscape:pageshadow="2"
     inkscape:window-width="1920"
     inkscape:window-height="1017"
     id="namedview6"
     showgrid="false"
     inkscape:zoom="1.6601562"
     inkscape:cx="224"
     inkscape:cy="256"
     inkscape:window-x="-8"
     inkscape:window-y="-8"
     inkscape:window-maximized="1"
     inkscape:current-layer="svg4"
     inkscape:document-rotation="0" />
  <path
     fill="currentColor"
     d="M 31.25,0 H 3.75 C 1.6796875,0 0,1.679687 0,3.75 v 27.5 C 0,33.320312 1.6796875,35 3.75,35 h 27.5 C 33.320312,35 35,33.320312 35,31.25 V 3.75 C 35,1.679687 33.320312,0 31.25,0 Z m -3.820313,12.40625 c 0.01563,0.21875 0.01563,0.445312 0.01563,0.664062 0,6.773438 -5.15625,14.578125 -14.578124,14.578125 -2.9062505,0 -5.601563,-0.84375 -7.867188,-2.296875 0.4140625,0.04687 0.8125,0.0625 1.234375,0.0625 2.3984375,0 4.601563,-0.8125 6.359375,-2.1875 -2.25,-0.04687 -4.140625,-1.523437 -4.7890625,-3.554687 0.7890625,0.117187 1.5,0.117187 2.3125005,-0.09375 C 7.7734425,19.101562 6.01563,17.039062 6.01563,14.546875 v -0.0625 c 0.6796875,0.382812 1.4765625,0.617187 2.3125,0.648437 A 5.1130469,5.1130469 0 0 1 6.04688,10.867187 c 0,-0.953125 0.25,-1.828125 0.6953125,-2.585937 2.5234375,3.109375 6.3125005,5.140625 10.5624995,5.359375 -0.726562,-3.476563 1.875,-6.296875 5,-6.296875 1.476563,0 2.804688,0.617187 3.742188,1.617187 1.15625,-0.21875 2.265625,-0.648437 3.25,-1.234375 -0.382813,1.1875 -1.1875,2.1875 -2.25,2.820313 C 28.078125,10.4375 29.078125,10.148437 30,9.75 c -0.695313,1.023437 -1.570313,1.929687 -2.570313,2.65625 z"
     id="path2"
     style="stroke-width:0.078125;fill:#999999" />
</svg>
